<svg width="48" height="48" viewBox="0 0 48 48" fill="none" xmlns="http://www.w3.org/2000/svg">
  <circle cx="24" cy="24" r="23" fill="#1E2422"/>
  <circle cx="24" cy="24" r="21" stroke="#B8863B" stroke-width="1"/>

  <g stroke="#B8863B" stroke-linecap="round">
    <line x1="10.92" y1="10.92" x2="13.75" y2="13.75" stroke-width="1.6"/>
    <line x1="14.16" y1="8.34" x2="15.75" y2="10.88" stroke-width="1"/>
    <line x1="17.89" y1="6.54" x2="18.88" y2="9.37" stroke-width="1"/>
    <line x1="21.93" y1="5.62" x2="22.26" y2="8.6" stroke-width="1"/>
    <line x1="26.07" y1="5.62" x2="25.74" y2="8.6" stroke-width="1"/>
    <line x1="30.11" y1="6.54" x2="29.12" y2="9.37" stroke-width="1"/>
    <line x1="33.84" y1="8.34" x2="32.25" y2="10.88" stroke-width="1"/>
    <line x1="37.08" y1="10.92" x2="34.25" y2="13.75" stroke-width="1.6"/>
    <line x1="39.66" y1="14.16" x2="37.12" y2="15.75" stroke-width="1"/>
    <line x1="41.46" y1="17.89" x2="38.63" y2="18.88" stroke-width="1"/>
    <line x1="42.38" y1="21.93" x2="39.4" y2="22.26" stroke-width="1"/>
    <line x1="42.38" y1="26.07" x2="39.4" y2="25.74" stroke-width="1"/>
    <line x1="41.46" y1="30.11" x2="38.63" y2="29.12" stroke-width="1"/>
    <line x1="39.66" y1="33.84" x2="37.12" y2="32.25" stroke-width="1"/>
    <line x1="37.08" y1="37.08" x2="34.25" y2="34.25" stroke-width="1.6"/>
  </g>

  <line x1="24" y1="24" x2="35.47" y2="19.04" stroke="#B8863B" stroke-width="2" stroke-linecap="round"/>
  <circle cx="24" cy="24" r="3" fill="#F3F1E8"/>
  <circle cx="24" cy="24" r="3" stroke="#B8863B" stroke-width="1"/>
</svg>
